<svg width="46" height="46" viewBox="0 0 46 46" fill="none" xmlns="http://www.w3.org/2000/svg">
<path fill-rule="evenodd" clip-rule="evenodd" d="M39.5833 0.083374C43.0352 0.083374 45.8333 2.8816 45.8333 6.33337V39.6667C45.8333 43.1186 43.0352 45.9167 39.5833 45.9167H6.25C2.79823 45.9167 0 43.1186 0 39.6667V6.33337C0 2.8816 2.79823 0.083374 6.25 0.083374H39.5833ZM39.5833 4.25004C40.734 4.25004 41.6667 5.18279 41.6667 6.33337V39.6667C41.6667 40.8173 40.734 41.75 39.5833 41.75H29.1667V27.1665H33.4921C34.3888 27.1665 35.1848 26.5927 35.4685 25.7419L36.3915 22.9732C36.7287 21.9613 35.9756 20.9165 34.9092 20.9165H29.1667V16.7499C29.1667 15.7082 30.2083 14.6665 31.25 14.6665H35.4167C36.5673 14.6665 37.5 13.7338 37.5 12.5832V11.1541C37.5 10.4811 37.0702 9.87775 36.4194 9.70602C33.6885 8.98535 31.25 8.98535 31.25 8.98535C26.0417 8.98535 22.9167 12.5832 22.9167 15.7082V20.9165H18.75C17.5994 20.9165 16.6667 21.8492 16.6667 22.9998V25.0832C16.6667 26.2338 17.5994 27.1665 18.75 27.1665H22.9167V41.75H6.25C5.09942 41.75 4.16667 40.8173 4.16667 39.6667V6.33337C4.16667 5.18279 5.09942 4.25004 6.25 4.25004H39.5833Z" fill="#FFFEFE"/>
</svg>
