<svg width="47" height="46" viewBox="0 0 47 46" fill="none" xmlns="http://www.w3.org/2000/svg">
<path fill-rule="evenodd" clip-rule="evenodd" d="M23.8334 35.4167C30.7369 35.4167 36.3334 29.8202 36.3334 22.9167C36.3334 16.0131 30.7369 10.4167 23.8334 10.4167C16.9298 10.4167 11.3334 16.0131 11.3334 22.9167C11.3334 29.8202 16.9298 35.4167 23.8334 35.4167ZM23.8334 31.25C28.4356 31.25 32.1667 27.519 32.1667 22.9167C32.1667 18.3143 28.4356 14.5833 23.8334 14.5833C19.231 14.5833 15.5 18.3143 15.5 22.9167C15.5 27.519 19.231 31.25 23.8334 31.25Z" fill="white"/>
<path d="M36.3334 8.33333C35.1827 8.33333 34.25 9.26608 34.25 10.4167C34.25 11.5673 35.1827 12.5 36.3334 12.5C37.484 12.5 38.4167 11.5673 38.4167 10.4167C38.4167 9.26608 37.484 8.33333 36.3334 8.33333Z" fill="white"/>
<path fill-rule="evenodd" clip-rule="evenodd" d="M2.2791 6.82512C0.916687 9.49902 0.916687 12.9994 0.916687 20V25.8333C0.916687 32.834 0.916687 36.3344 2.2791 39.0081C3.47752 41.3602 5.38977 43.2725 7.74181 44.4708C10.4157 45.8333 13.916 45.8333 20.9167 45.8333H26.75C33.7506 45.8333 37.2511 45.8333 39.9248 44.4708C42.2769 43.2725 44.1892 41.3602 45.3875 39.0081C46.75 36.3344 46.75 32.834 46.75 25.8333V20C46.75 12.9994 46.75 9.49902 45.3875 6.82512C44.1892 4.47308 42.2769 2.56083 39.9248 1.36242C37.2511 0 33.7506 0 26.75 0H20.9167C13.916 0 10.4157 0 7.74181 1.36242C5.38977 2.56083 3.47752 4.47308 2.2791 6.82512ZM26.75 4.16667H20.9167C17.3476 4.16667 14.9214 4.16992 13.046 4.32312C11.2193 4.47237 10.2851 4.7429 9.63344 5.07494C8.06542 5.8739 6.79058 7.14873 5.99162 8.71675C5.65958 9.36842 5.38906 10.3026 5.23981 12.1293C5.0866 14.0047 5.08335 16.4309 5.08335 20V25.8333C5.08335 29.4025 5.0866 31.8285 5.23981 33.704C5.38906 35.5308 5.65958 36.465 5.99162 37.1167C6.79058 38.6846 8.06542 39.9594 9.63344 40.7583C10.2851 41.0904 11.2193 41.361 13.046 41.5102C14.9214 41.6633 17.3476 41.6667 20.9167 41.6667H26.75C30.3192 41.6667 32.7452 41.6633 34.6206 41.5102C36.4475 41.361 37.3817 41.0904 38.0334 40.7583C39.6013 39.9594 40.8761 38.6846 41.675 37.1167C42.0071 36.465 42.2777 35.5308 42.4269 33.704C42.58 31.8285 42.5834 29.4025 42.5834 25.8333V20C42.5834 16.4309 42.58 14.0047 42.4269 12.1293C42.2777 10.3026 42.0071 9.36842 41.675 8.71675C40.8761 7.14873 39.6013 5.8739 38.0334 5.07494C37.3817 4.7429 36.4475 4.47237 34.6206 4.32312C32.7452 4.16992 30.3192 4.16667 26.75 4.16667Z" fill="white"/>
</svg>
